<?xml version="1.0" standalone="no"?><!DOCTYPE svg PUBLIC "-//W3C//DTD SVG 1.1//EN" "http://www.w3.org/Graphics/SVG/1.1/DTD/svg11.dtd"><svg t="1758824935279" class="icon" viewBox="0 0 1024 1024" version="1.1" xmlns="http://www.w3.org/2000/svg" p-id="25039" xmlns:xlink="http://www.w3.org/1999/xlink" width="200" height="200"><path d="M717.44 113.664c23.872 0 50.176 17.536 59.712 40.896l20.288 59.264h91.456c63.68 0 113.6 45.568 118.4 106.496l0.448 9.728v467.456c0 65.728-51.84 116.16-118.848 116.16H134.592c-64.704 0-118.848-51.52-118.848-116.16V330.048c0-65.728 51.84-116.16 118.848-116.16h91.392l20.672-60.224c8.704-21.12 28.544-36.608 51.584-39.488l7.808-0.512h411.392z m-14.72 82.048H320.64l-19.84 55.552-13.824 44.672H134.592c-18.688 0-35.456 16.32-35.456 34.112v467.456c0 17.792 16.768 34.112 35.456 34.112h754.304c18.688 0 35.392-16.32 35.392-34.112V330.048c0-17.792-16.704-34.112-35.392-34.112h-152.384l-13.568-43.968-20.224-56.256zM511.744 280.64c142.464 0 256 110.592 256 249.728 0 139.2-113.536 249.728-256 249.728s-256-110.528-256-249.728c0-139.136 113.536-249.728 256-249.728z m0 82.112c-94.08 0-172.608 76.416-172.608 167.68 0 91.2 78.464 167.616 172.608 167.616 94.08 0 172.544-76.416 172.544-167.68 0-91.2-78.464-167.68-172.544-167.68z m329.152-48.704c39.04 0 70.848 30.976 70.848 69.44 0 38.4-31.808 69.376-70.848 69.376s-70.848-30.976-70.848-69.376c0-38.464 31.808-69.44 70.848-69.44z" fill="#000000" p-id="25040"></path></svg>